<?xml version="1.0" standalone="no"?>
<!DOCTYPE svg PUBLIC "-//W3C//DTD SVG 20010904//EN"
 "http://www.w3.org/TR/2001/REC-SVG-20010904/DTD/svg10.dtd">
<svg version="1.0" xmlns="http://www.w3.org/2000/svg"
 width="1200.000000pt" height="1200.000000pt" viewBox="0 0 1200.000000 1200.000000"
 preserveAspectRatio="xMidYMid meet">

<g transform="translate(0.000000,1200.000000) scale(0.100000,-0.100000)"
fill="#000000" stroke="none">
<path d="M5770 11989 c-648 -56 -1293 -319 -1908 -778 -106 -79 -125 -98 -160
-158 -191 -331 -342 -694 -398 -957 -46 -221 -45 -240 45 -906 44 -327 83
-610 85 -628 3 -19 34 -73 79 -135 141 -193 240 -362 281 -482 l21 -60 0 325
c1 325 1 325 27 408 49 151 228 935 228 1000 0 12 6 22 13 22 6 0 80 -39 162
-86 490 -281 826 -390 1140 -371 215 14 387 85 582 242 67 53 541 319 613 344
36 12 109 27 163 33 310 37 652 -105 949 -394 85 -82 87 -86 196 -303 200
-398 353 -621 462 -670 l40 -18 2 -266 3 -265 33 86 c78 207 208 437 282 501
37 32 39 36 54 137 63 425 70 929 20 1325 -67 517 -232 922 -488 1192 -189
200 -586 450 -971 611 -492 206 -1044 295 -1555 251z"/>
<path d="M3590 4480 c-774 -182 -1408 -339 -1501 -373 -314 -114 -604 -301
-855 -552 -154 -154 -233 -250 -361 -443 -257 -386 -436 -848 -528 -1362 -23
-128 -328 -1670 -342 -1728 l-5 -22 6002 0 6002 0 -6 32 c-3 18 -64 445 -136
948 -151 1054 -156 1084 -237 1349 -104 344 -307 734 -523 1006 -93 117 -270
295 -385 388 -197 159 -442 299 -668 382 -53 19 -393 107 -755 194 -954 231
-1151 276 -1161 265 -4 -5 -68 -191 -140 -414 -73 -223 -236 -720 -362 -1105
-127 -385 -266 -808 -309 -940 -44 -132 -201 -613 -350 -1069 -149 -457 -273
-832 -275 -835 -3 -2 -5 3 -5 11 0 9 -65 493 -145 1076 -80 583 -145 1073
-145 1089 0 15 38 114 84 218 46 105 83 190 82 191 -14 10 -484 339 -491 345
-6 4 -58 -26 -120 -70 -61 -42 -174 -122 -252 -177 l-141 -100 84 -189 c46
-105 84 -201 84 -214 0 -24 -287 -2146 -294 -2166 -3 -12 5 -35 -426 1290
-279 856 -763 2341 -961 2943 -36 107 -43 122 -62 121 -12 0 -191 -40 -397
-89z"/>
</g>
</svg>
