<?xml version="1.0" standalone="no"?>
<!DOCTYPE svg PUBLIC "-//W3C//DTD SVG 20010904//EN"
 "http://www.w3.org/TR/2001/REC-SVG-20010904/DTD/svg10.dtd">
<svg version="1.0" xmlns="http://www.w3.org/2000/svg"
 width="1200.000000pt" height="1200.000000pt" viewBox="0 0 1200.000000 1200.000000"
 preserveAspectRatio="xMidYMid meet">

<g transform="translate(0.000000,1200.000000) scale(0.100000,-0.100000)"
fill="#000000" stroke="none">
<path d="M5770 11989 c-657 -57 -1307 -325 -1932 -796 -81 -61 -104 -84 -136
-141 -190 -329 -349 -713 -401 -968 -41 -198 -39 -254 23 -709 48 -350 94
-691 110 -813 3 -19 34 -72 79 -135 141 -193 240 -362 281 -482 l21 -60 0 325
c1 325 1 325 27 408 49 151 228 935 228 1000 0 12 6 22 13 22 6 0 80 -39 162
-86 303 -174 517 -269 727 -324 384 -101 712 -42 966 173 72 60 556 336 642
366 36 12 109 27 163 33 310 37 652 -105 949 -394 85 -82 87 -86 196 -303 200
-398 353 -621 462 -670 l40 -18 2 -264 3 -265 39 99 c87 219 203 423 276 486
37 32 39 35 54 137 43 295 55 503 51 830 -5 361 -36 619 -105 882 -112 432
-309 752 -593 965 -487 366 -1076 610 -1662 688 -188 25 -490 31 -685 14z"/>
<path d="M7975 4101 c-86 -262 -253 -771 -371 -1131 -241 -734 -302 -918 -537
-1640 -91 -278 -212 -647 -268 -820 -57 -173 -105 -308 -106 -300 -2 12 -87
631 -123 900 -6 41 -46 337 -90 657 -44 320 -80 595 -80 610 0 15 38 113 84
218 l83 189 -136 96 c-75 53 -188 133 -251 177 l-115 81 -95 -66 c-52 -37
-165 -116 -252 -177 l-156 -111 84 -190 c46 -104 84 -200 84 -212 0 -23 -288
-2148 -294 -2167 -3 -12 -6 -3 -351 1060 -147 451 -297 915 -335 1030 -55 166
-536 1636 -707 2158 -22 69 -40 107 -49 107 -59 0 -1785 -420 -1905 -463 -314
-114 -604 -301 -855 -552 -154 -154 -233 -250 -361 -443 -252 -378 -439 -858
-523 -1337 -19 -106 -333 -1696 -347 -1752 l-5 -23 6002 0 6002 0 -6 33 c-3
17 -64 444 -136 947 -151 1054 -156 1084 -237 1349 -104 344 -307 734 -523
1006 -270 340 -638 611 -1027 759 -115 43 -828 222 -1710 428 l-232 54 -156
-475z"/>
</g>
</svg>
